<?xml version="1.0" encoding="UTF-8"?>
<svg version="1.1" xmlns="http://www.w3.org/2000/svg" width="512" height="512">
<path d="M0 0 C0.77661924 -0.00779995 1.55323849 -0.01559991 2.35339165 -0.02363622 C4.95238743 -0.04355975 7.54991948 -0.0277912 10.14892578 -0.01205444 C12.01345677 -0.01883043 13.87798107 -0.02773346 15.74249268 -0.03860474 C20.80452113 -0.06140683 25.86604029 -0.05255791 30.9280777 -0.03670931 C36.22420123 -0.02405509 41.52028101 -0.0357891 46.81640625 -0.04364014 C55.71052891 -0.05273808 64.60444401 -0.04074493 73.49853516 -0.01693726 C83.78302328 0.01027422 94.06701581 0.00146017 104.35149193 -0.02606928 C113.17966646 -0.04875517 122.00769174 -0.05196296 130.835886 -0.03887594 C136.10940297 -0.03107859 141.38268694 -0.03004771 146.65618896 -0.04655838 C151.61399294 -0.06099623 156.57115764 -0.05099381 161.52889252 -0.0220871 C163.34897551 -0.01547264 165.16911225 -0.01738011 166.98917389 -0.02840042 C169.47300231 -0.04205382 171.95477912 -0.02494494 174.43847656 0 C175.52043462 -0.01673041 175.52043462 -0.01673041 176.62425041 -0.03379881 C180.48850921 0.04154705 182.11306316 0.54997393 185.1700592 2.9956913 C187.623209 6.15520968 187.80890057 7.63808888 187.70751953 11.59194946 C187.69140625 12.70376587 187.67529297 13.81558228 187.65869141 14.96109009 C187.61679687 16.11157837 187.57490234 17.26206665 187.53173828 18.44741821 C187.50917969 19.61724243 187.48662109 20.78706665 187.46337891 21.99234009 C187.4045592 24.87450591 187.32240969 27.75405502 187.21923828 30.63491821 C188.31012505 30.62159454 188.31012505 30.62159454 189.42304993 30.60800171 C196.32140328 30.52741088 203.21968507 30.46672973 210.11839008 30.42766953 C213.66401279 30.40691202 217.20924222 30.3788159 220.75463867 30.3331604 C224.84313444 30.28084866 228.93122573 30.26187545 233.02001953 30.24429321 C234.27567215 30.22364807 235.53132477 30.20300293 236.82502747 30.18173218 C248.66625141 30.17875194 257.88853016 33.3441938 267.21923828 40.63491821 C267.83541016 41.1131604 268.45158203 41.59140259 269.08642578 42.08413696 C277.05368369 49.11302894 281.72927428 60.29265222 283.21923828 70.63491821 C283.50317438 75.90389603 283.48279733 81.16546901 283.4621582 86.43984985 C283.46320527 88.04878216 283.46511766 89.65771409 283.46781635 91.26664448 C283.47261084 95.67659781 283.46482009 100.08645142 283.45481873 104.49639273 C283.44610481 109.2673087 283.4487889 114.0382211 283.4498291 118.80914307 C283.44985348 128.17036202 283.43843983 137.53153408 283.42257392 146.89273834 C283.40972623 154.51444873 283.40043203 162.13615559 283.39346313 169.75787354 C283.36625479 198.73496103 283.31143813 227.7119395 283.24399537 256.68895906 C283.22422749 265.25187497 283.20657783 273.81479354 283.18994141 282.37771606 C283.13768825 309.05980089 283.07377291 335.74179189 282.9787035 362.42376232 C282.97038829 364.75837897 282.96207574 367.09299563 282.95376587 369.4276123 C282.949662 370.57700069 282.94555813 371.72638907 282.9413299 372.9106074 C282.91305734 381.0114201 282.89192597 389.11223295 282.87362671 397.21307373 C282.85107375 407.10390168 282.81780772 416.99462458 282.77083766 426.88536787 C282.74706311 431.9417883 282.72794887 436.99810961 282.72157288 442.0545845 C282.71554933 446.69341937 282.69569027 451.33198513 282.66495097 455.97072017 C282.65621772 457.6476381 282.65245276 459.32459104 282.65423334 461.00153077 C282.66542542 476.39512334 280.02694485 489.05213949 269.29345703 500.71694946 C258.55676453 510.64485157 247.19171343 513.09350393 232.98023987 513.02259827 C231.67680364 513.0279838 230.37336741 513.03336934 229.03043312 513.03891808 C225.43708853 513.05330081 221.8439747 513.04915065 218.25061786 513.04175127 C214.36572645 513.03700405 210.48088386 513.04954309 206.5960083 513.05976868 C198.99495648 513.07693131 191.39398741 513.07780201 183.79292125 513.07255577 C177.61284879 513.06850833 171.43280072 513.06996445 165.25272942 513.07530403 C164.37192003 513.07605245 163.49111065 513.07680088 162.58361007 513.07757198 C160.79404545 513.07910351 159.00448083 513.08064186 157.21491622 513.08218694 C140.44744168 513.09590266 123.68001384 513.09048069 106.91254037 513.07900173 C91.5851934 513.06906898 76.25796715 513.08201239 60.9306388 513.10593592 C45.17675366 513.13033924 29.42292472 513.13993185 13.66902107 513.1332832 C4.83068355 513.12979389 -4.00756113 513.13200406 -12.84588432 513.14953423 C-20.36915728 513.16427156 -27.89227203 513.1648716 -35.41554194 513.14746331 C-39.25090294 513.13896376 -43.08598148 513.13677796 -46.92132759 513.15211487 C-51.08603947 513.16856218 -55.25007281 513.15378588 -59.41477966 513.13612366 C-60.61712972 513.14572866 -61.81947977 513.15533367 -63.05826467 513.16522974 C-74.55733675 513.06508647 -83.72951883 509.7072772 -92.78076172 502.63491821 C-93.39693359 502.15667603 -94.01310547 501.67843384 -94.64794922 501.18569946 C-102.60942937 494.16190475 -107.30443398 482.97388207 -108.78076172 472.63491821 C-109.06600597 467.22780651 -109.04427988 461.82763261 -109.02368164 456.41519165 C-109.02472589 454.76206069 -109.0266352 453.1089301 -109.02933121 451.45580101 C-109.03411859 446.92625571 -109.02632596 442.3968074 -109.01632953 437.86727381 C-109.00764388 432.97348758 -109.01038889 428.07970507 -109.01148987 423.18591309 C-109.01161412 413.59698124 -109.00029383 404.00809552 -108.98434788 394.41917813 C-108.97139021 386.62006026 -108.96162563 378.82094489 -108.95397949 371.02182007 C-108.92800538 345.21446448 -108.88376673 319.40718307 -108.82668495 293.59987831 C-108.79177418 277.69478838 -108.76520061 261.78970305 -108.74335659 245.88459015 C-108.71199253 223.18949295 -108.66447645 200.49450504 -108.59204006 177.79949951 C-108.58474828 175.50379441 -108.57747518 173.20808925 -108.57022095 170.91238403 C-108.56664843 169.78263877 -108.56307591 168.65289351 -108.55939513 167.48891354 C-108.53520842 159.53298749 -108.52087229 151.57707931 -108.5105896 143.62112427 C-108.4978663 133.91575355 -108.4711645 124.21054397 -108.4264496 114.50526583 C-108.40398463 109.55137526 -108.38780552 104.59768017 -108.38882637 99.64373398 C-108.3895665 95.10229336 -108.37180701 90.56130665 -108.33958209 86.01998377 C-108.33113381 84.380515 -108.32931646 82.74099515 -108.33496225 81.10151434 C-108.37737342 66.91696947 -105.62688766 54.21897155 -95.74560547 43.40835571 C-87.79774835 35.92307229 -77.69365846 30.36102413 -66.59179688 30.40786743 C-65.39100494 30.40801849 -64.19021301 30.40816956 -62.95303345 30.4083252 C-61.03084488 30.42380905 -61.03084488 30.42380905 -59.06982422 30.43960571 C-57.73318698 30.44334032 -56.39654698 30.44618518 -55.05990601 30.44818115 C-51.5582104 30.45578244 -48.05668322 30.47540033 -44.55505371 30.49758911 C-40.97536497 30.51812348 -37.39564876 30.52719903 -33.81591797 30.53726196 C-26.80413045 30.55864992 -19.79245419 30.59274305 -12.78076172 30.63491821 C-12.8069458 29.90377808 -12.83312988 29.17263794 -12.86010742 28.41934204 C-12.96426316 25.0955874 -13.02914793 21.77217627 -13.09326172 18.44741821 C-13.13515625 17.29692993 -13.17705078 16.14644165 -13.22021484 14.96109009 C-13.23632812 13.84927368 -13.25244141 12.73745728 -13.26904297 11.59194946 C-13.29522705 10.57077026 -13.32141113 9.54959106 -13.34838867 8.49746704 C-11.91734978 1.28072252 -6.5425277 -0.10116768 0 0 Z " fill="#C1DBFB" transform="translate(168.78076171875,-0.634918212890625)"/>
<path d="M0 0 C1.20079193 0.00015106 2.40158386 0.00030212 3.63876343 0.00045776 C5.560952 0.01594162 5.560952 0.01594162 7.52197266 0.03173828 C8.8586099 0.03547289 10.1952499 0.03831774 11.53189087 0.04031372 C15.03358648 0.04791501 18.53511366 0.0675329 22.03674316 0.08972168 C25.61643191 0.11025604 29.19614812 0.1193316 32.77587891 0.12939453 C39.78766642 0.15078249 46.79934268 0.18487562 53.81103516 0.22705078 C53.84076416 1.18744263 53.84076416 1.18744263 53.87109375 2.16723633 C53.96667116 5.08340358 54.07621729 7.9988865 54.18603516 10.91455078 C54.21697266 11.92195313 54.24791016 12.92935547 54.27978516 13.96728516 C54.31845703 14.94375 54.35712891 15.92021484 54.39697266 16.92626953 C54.42839355 17.82176514 54.45981445 18.71726074 54.4921875 19.63989258 C54.84503081 22.50289451 55.50809992 24.65431507 56.81103516 27.22705078 C83.72685835 45.17093291 121.46407196 29.88293415 153.81103516 30.22705078 C153.81103516 179.38705078 153.81103516 328.54705078 153.81103516 482.22705078 C-13.39091132 482.22705078 -13.39091132 482.22705078 -26.18896484 472.22705078 C-26.80513672 471.74880859 -27.42130859 471.27056641 -28.05615234 470.77783203 C-36.01763249 463.75403732 -40.7126371 452.56601464 -42.18896484 442.22705078 C-42.4742091 436.81993908 -42.452483 431.41976518 -42.43188477 426.00732422 C-42.43292902 424.35419326 -42.43483832 422.70106267 -42.43753433 421.04793358 C-42.44232171 416.51838828 -42.43452909 411.98893997 -42.42453265 407.45940638 C-42.415847 402.56562015 -42.41859202 397.67183764 -42.41969299 392.77804565 C-42.41981725 383.18911381 -42.40849695 373.60022809 -42.392551 364.0113107 C-42.37959333 356.21219283 -42.36982875 348.41307746 -42.36218262 340.61395264 C-42.3362085 314.80659705 -42.29196986 288.99931564 -42.23488808 263.19201088 C-42.19997731 247.28692095 -42.17340374 231.38183562 -42.15155971 215.47672272 C-42.12019565 192.78162552 -42.07267958 170.08663761 -42.00024319 147.39163208 C-41.99295141 145.09592698 -41.9856783 142.80022182 -41.97842407 140.5045166 C-41.97485155 139.37477134 -41.97127904 138.24502607 -41.96759826 137.0810461 C-41.94341155 129.12512006 -41.92907541 121.16921188 -41.91879272 113.21325684 C-41.90606942 103.50788612 -41.87936762 93.80267654 -41.83465272 84.0973984 C-41.81218775 79.14350783 -41.79600865 74.18981274 -41.7970295 69.23586655 C-41.79776962 64.69442593 -41.78001014 60.15343922 -41.74778521 55.61211634 C-41.73933694 53.97264757 -41.73751959 52.33312772 -41.74316537 50.69364691 C-41.78557655 36.50910204 -39.03509078 23.81110411 -29.15380859 13.00048828 C-21.20595147 5.51520486 -11.10186158 -0.0468433 0 0 Z " fill="#E3F3FD" transform="translate(102.18896484375,29.77294921875)"/>
<path d="M0 0 C0.77661924 -0.00779995 1.55323849 -0.01559991 2.35339165 -0.02363622 C4.95238743 -0.04355975 7.54991948 -0.0277912 10.14892578 -0.01205444 C12.01345677 -0.01883043 13.87798107 -0.02773346 15.74249268 -0.03860474 C20.80452113 -0.06140683 25.86604029 -0.05255791 30.9280777 -0.03670931 C36.22420123 -0.02405509 41.52028101 -0.0357891 46.81640625 -0.04364014 C55.71052891 -0.05273808 64.60444401 -0.04074493 73.49853516 -0.01693726 C83.78302328 0.01027422 94.06701581 0.00146017 104.35149193 -0.02606928 C113.17966646 -0.04875517 122.00769174 -0.05196296 130.835886 -0.03887594 C136.10940297 -0.03107859 141.38268694 -0.03004771 146.65618896 -0.04655838 C151.61399294 -0.06099623 156.57115764 -0.05099381 161.52889252 -0.0220871 C163.34897551 -0.01547264 165.16911225 -0.01738011 166.98917389 -0.02840042 C169.47300231 -0.04205382 171.95477912 -0.02494494 174.43847656 0 C175.52043462 -0.01673041 175.52043462 -0.01673041 176.62425041 -0.03379881 C180.50675796 0.04190287 182.10820264 0.54493476 185.1658535 3.02285957 C187.41333723 5.88182655 187.84937796 7.0485646 187.86621094 10.62124634 C187.88197174 11.58574707 187.89773254 12.5502478 187.91397095 13.54397583 C187.90384979 14.57429932 187.89372864 15.6046228 187.88330078 16.66616821 C187.88808441 17.73484131 187.89286804 18.8035144 187.89779663 19.90457153 C187.90119409 22.16056798 187.89200258 24.41661376 187.87109375 26.67251587 C187.84432808 30.12334086 187.87084899 33.57091301 187.90283203 37.02163696 C187.89952791 39.21565455 187.89312163 41.40967012 187.88330078 43.60366821 C187.89342194 44.6339917 187.90354309 45.66431519 187.91397095 46.7258606 C187.7966311 53.90660945 187.7966311 53.90660945 184.74023438 57.76187134 C183.90830566 58.37997681 183.07637695 58.99808228 182.21923828 59.63491821 C181.88923828 59.96491821 181.55923828 60.29491821 181.21923828 60.63491821 C178.80223822 60.74366955 176.41337687 60.78715868 173.99542236 60.78881836 C173.23038792 60.79320061 172.46535348 60.79758287 171.67713618 60.80209792 C169.0938371 60.8155347 166.51057217 60.82167568 163.92724609 60.82778931 C162.0830164 60.83568648 160.23878826 60.84395519 158.39456177 60.85256958 C152.32051072 60.87883578 146.24645261 60.89410249 140.17236328 60.90835571 C138.08452093 60.91371364 135.99667862 60.91909114 133.90883636 60.92448807 C125.22579675 60.94612416 116.54275902 60.96486189 107.85969925 60.97611046 C95.40034334 60.99235494 82.94129907 61.02553656 70.48206067 61.08251131 C61.73044234 61.12117167 52.97890749 61.14073856 44.22720599 61.14603102 C38.99604819 61.14969005 33.76522242 61.16176952 28.5341568 61.19413376 C23.61260203 61.22414543 18.69158136 61.23055091 13.76995468 61.21875 C11.96274452 61.21852868 10.15551008 61.22688186 8.34838486 61.24440384 C5.88193929 61.26701817 3.41744306 61.25883805 0.95098877 61.24291992 C0.23473682 61.25680201 -0.48151514 61.2706841 -1.21947169 61.28498685 C-5.06418614 61.22379285 -6.66727946 60.72624458 -9.70149612 58.28441811 C-12.42270995 54.816917 -12.90598506 52.33682938 -12.97363281 48.05923462 C-12.98969574 47.13462433 -13.00575867 46.21001404 -13.02230835 45.25738525 C-13.06683898 41.03916242 -13.10780459 36.82109449 -13.13085938 32.60269165 C-13.14743505 30.37765048 -13.17474602 28.1526629 -13.21289062 25.92788696 C-13.26762674 22.71797092 -13.28952674 19.50930041 -13.30419922 16.29898071 C-13.32686859 15.30613068 -13.34953796 14.31328064 -13.37289429 13.29034424 C-13.37004425 12.35942963 -13.36719421 11.42851501 -13.36425781 10.46939087 C-13.37234467 9.65459259 -13.38043152 8.83979431 -13.38876343 8.00030518 C-11.62519201 1.1392573 -6.28365692 -0.09716474 0 0 Z " fill="#6E79DE" transform="translate(168.78076171875,-0.634918212890625)"/>
<path d="M0 0 C1.390979 -0.0010952 1.390979 -0.0010952 2.81005859 -0.00221252 C5.86770619 0.00126414 8.92382051 0.04012963 11.98120117 0.0793457 C14.10397001 0.08867353 16.22674962 0.09578978 18.34953308 0.1007843 C23.93112004 0.11985631 29.51205434 0.16895959 35.09338379 0.2243042 C41.79301211 0.28449478 48.49285892 0.30741188 55.19268036 0.33657074 C65.36613052 0.3850237 75.53814921 0.48083862 85.71166992 0.56762695 C85.71166992 20.36762695 85.71166992 40.16762695 85.71166992 60.56762695 C62.45301704 60.768171 62.45301704 60.768171 52.54174805 60.81176758 C45.77763266 60.84166172 39.01385556 60.87703298 32.25 60.94482422 C26.79701721 60.99913536 21.34439715 61.0290459 15.89116478 61.04201317 C13.81029741 61.05125458 11.72944998 61.06930097 9.64873695 61.09627724 C6.73478869 61.13255516 3.82234074 61.13757277 0.90820312 61.13525391 C0.04721008 61.15323029 -0.81378296 61.17120667 -1.7008667 61.18972778 C-6.04907787 61.15226663 -7.75992083 60.97950474 -11.3006134 58.21965027 C-13.91064332 54.73733296 -14.41427342 52.22401008 -14.48120117 47.99194336 C-14.4972641 47.06733307 -14.51332703 46.14272278 -14.52987671 45.19009399 C-14.57440734 40.97187116 -14.61537295 36.75380323 -14.63842773 32.53540039 C-14.65500341 30.31035922 -14.68231438 28.08537164 -14.72045898 25.8605957 C-14.7751951 22.65067966 -14.7970951 19.44200915 -14.81176758 16.23168945 C-14.83443695 15.23883942 -14.85710632 14.24598938 -14.88046265 13.22305298 C-14.87761261 12.29213837 -14.87476257 11.36122375 -14.87182617 10.40209961 C-14.87991302 9.58730133 -14.88799988 8.77250305 -14.89633179 7.93301392 C-12.8745213 0.06730549 -6.81568538 -0.14077351 0 0 Z " fill="#7B87E1" transform="translate(170.288330078125,-0.567626953125)"/>
<path d="M0 0 C1.65011833 -0.01051392 1.65011833 -0.01051392 3.33357239 -0.02124023 C6.95839928 -0.03879892 10.58244099 -0.0272034 14.20727539 -0.01367188 C16.73401539 -0.01636757 19.26075439 -0.02025064 21.78749084 -0.02526855 C27.07914072 -0.03116094 32.3705112 -0.02299327 37.66210938 -0.00390625 C43.76356684 0.01784904 49.86448929 0.01081616 55.96593374 -0.01121187 C61.85474557 -0.03161441 67.74339249 -0.02937395 73.63223457 -0.01768494 C76.12922809 -0.01502169 78.62623531 -0.01827321 81.12321281 -0.02760315 C84.61766257 -0.03779434 88.11109452 -0.02222939 91.60546875 0 C92.63169342 -0.00809692 93.65791809 -0.01619385 94.71524048 -0.02453613 C100.84110316 0.04743116 105.83811773 0.80339682 110.86743164 4.51757812 C113.63254361 7.66495286 114.76250225 10.79618853 115.36743164 14.95507812 C114.75271582 19.33492834 113.81853674 23.14190366 110.86743164 26.51757812 C104.31972224 30.53224558 99.21037942 31.09935896 91.62133789 31.05102539 C89.97100052 31.06394875 89.97100052 31.06394875 88.287323 31.07713318 C84.66794996 31.09974657 81.04935402 31.09306274 77.42993164 31.08398438 C74.90462006 31.08922165 72.37931045 31.09549851 69.85400391 31.10276794 C64.56836708 31.11316339 59.2829306 31.10895351 53.99731445 31.09399414 C47.90313853 31.07706852 41.80967871 31.09292241 35.71558094 31.12521702 C29.83154464 31.15520698 23.94778428 31.15708278 18.06369019 31.14771843 C15.56947905 31.14689954 13.07525293 31.15375083 10.58108521 31.16848946 C7.09137081 31.18595189 3.60317916 31.17137658 0.11352539 31.14868164 C-0.91112823 31.16037384 -1.93578186 31.17206604 -2.9914856 31.18411255 C-9.48450663 31.09840612 -14.22002252 29.9585355 -19.13256836 25.51757812 C-21.91794059 20.81726249 -22.81047522 16.940833 -22.13256836 11.51757812 C-20.3833562 6.57188899 -17.96981398 3.96682833 -13.32014275 1.38360596 C-9.02468335 -0.31690188 -4.56024751 -0.03590957 0 0 Z " fill="#50B1BA" transform="translate(278.132568359375,379.482421875)"/>
<path d="M0 0 C1.11304504 -0.00700928 2.22609009 -0.01401855 3.37286377 -0.02124023 C7.03976635 -0.03879754 10.70589276 -0.02720549 14.37280273 -0.01367188 C16.92675423 -0.01636723 19.48070472 -0.02025001 22.03465271 -0.02526855 C27.38177224 -0.03116042 32.72861523 -0.02299307 38.07568359 -0.00390625 C44.24761518 0.01787129 50.41901835 0.01079968 56.5909372 -0.01121187 C62.54275997 -0.03158438 68.49441926 -0.02938617 74.4462719 -0.01768494 C76.9728293 -0.01501779 79.49940021 -0.01828694 82.02594185 -0.02760315 C85.55672017 -0.03776651 89.08648465 -0.02226927 92.6171875 0 C93.65995346 -0.00809692 94.70271942 -0.01619385 95.77708435 -0.02453613 C103.35575744 0.06397669 106.43358913 1.64283752 112.11889648 6.58007812 C114.63439585 11.12732698 114.47549689 15.44116715 113.74389648 20.51757812 C111.54927043 25.16005631 108.49062658 28.46981073 103.74389648 30.51757812 C100.03377651 31.09949192 96.36656065 31.06426958 92.6171875 31.03515625 C90.95024841 31.04567017 90.95024841 31.04567017 89.24963379 31.05639648 C85.58210135 31.07397785 81.91534281 31.06235158 78.24780273 31.04882812 C75.69481763 31.05152317 73.14183352 31.05540569 70.58885193 31.0604248 C65.23995233 31.06632025 59.89132898 31.05813865 54.54248047 31.0390625 C48.37115748 31.0173063 42.2003634 31.0243391 36.02905327 31.04636812 C30.07776998 31.06675623 24.12665003 31.06453561 18.17533684 31.05284119 C15.64960595 31.05017562 13.12386153 31.05343764 10.59814644 31.0627594 C7.06506929 31.0729367 3.53300209 31.05740494 0 31.03515625 C-1.04074173 31.04325317 -2.08148346 31.0513501 -3.15376282 31.05969238 C-9.39561538 30.98700479 -13.15750526 30.19288099 -18.25610352 26.51757812 C-21.09506066 23.06671544 -22.14147876 19.33427951 -22.75610352 14.95507812 C-22.15423956 10.81726346 -21.13092819 7.60855503 -18.25610352 4.51757812 C-12.19666988 0.17828815 -7.32820648 -0.05701312 0 0 Z " fill="#50B1BA" transform="translate(278.256103515625,179.482421875)"/>
<path d="M0 0 C1.11304504 -0.00700928 2.22609009 -0.01401855 3.37286377 -0.02124023 C7.03976635 -0.03879754 10.70589276 -0.02720549 14.37280273 -0.01367188 C16.92675423 -0.01636723 19.48070472 -0.02025001 22.03465271 -0.02526855 C27.38177224 -0.03116042 32.72861523 -0.02299307 38.07568359 -0.00390625 C44.24761518 0.01787129 50.41901835 0.01079968 56.5909372 -0.01121187 C62.54275997 -0.03158438 68.49441926 -0.02938617 74.4462719 -0.01768494 C76.9728293 -0.01501779 79.49940021 -0.01828694 82.02594185 -0.02760315 C85.55672017 -0.03776651 89.08648465 -0.02226927 92.6171875 0 C93.65995346 -0.00809692 94.70271942 -0.01619385 95.77708435 -0.02453613 C103.35575744 0.06397669 106.43358913 1.64283752 112.11889648 6.58007812 C114.63439585 11.12732698 114.47549689 15.44116715 113.74389648 20.51757812 C111.54877984 25.1610941 108.48976548 28.46674568 103.74389648 30.51757812 C100.03961303 31.1037643 96.37739338 31.0744937 92.63305664 31.05102539 C91.52337021 31.05964096 90.41368378 31.06825653 89.27037048 31.07713318 C85.60766165 31.0998072 81.94571714 31.09305043 78.28295898 31.08398438 C75.7323687 31.08921977 73.18178036 31.09549594 70.63119507 31.10276794 C65.28649782 31.11317526 59.94207698 31.10893658 54.59741211 31.09399414 C48.43398003 31.07708451 42.2712568 31.09289513 36.10790217 31.12521702 C30.16195885 31.15520864 24.21623461 31.15708165 18.27021408 31.14771843 C15.74809218 31.14689931 13.22595549 31.153755 10.7038765 31.16848946 C7.17323776 31.185952 3.64410421 31.17137529 0.11352539 31.14868164 C-0.92362106 31.16037384 -1.96076752 31.17206604 -3.02934265 31.18411255 C-9.55374296 31.09899562 -14.32255489 29.99005424 -19.25610352 25.51757812 C-22.04147574 20.81726249 -22.93401037 16.940833 -22.25610352 11.51757812 C-20.50881685 6.57733309 -18.09638485 3.96409495 -13.45123482 1.38360596 C-9.11683865 -0.32640916 -4.5993772 -0.03578295 0 0 Z " fill="#50B1BA" transform="translate(278.256103515625,279.482421875)"/>
<path d="M0 0 C4.004793 2.0023965 6.6587028 4.17998877 9 8 C10.34193918 12.02581755 11.0037121 15.71054662 9.23561096 19.74356079 C5.26398799 26.26985789 -0.00892874 31.42692035 -5.41015625 36.7734375 C-6.42527053 37.78803208 -7.43986424 38.80314774 -8.45396423 39.8187561 C-10.56822152 41.93292422 -12.68749917 44.04187914 -14.81079102 46.14697266 C-17.52840441 48.84179877 -20.23469471 51.54766941 -22.93756962 54.25726891 C-25.02613647 56.34917854 -27.11966162 58.43606661 -29.21481133 60.52138138 C-30.21485436 61.51758513 -31.21356438 62.51512893 -32.21089363 63.51404953 C-33.60319773 64.90672522 -35.00274154 66.2921517 -36.40258789 67.67724609 C-37.19580948 68.46586029 -37.98903107 69.25447449 -38.80628967 70.06698608 C-42.48115063 73.30513347 -45.37735069 74.33293774 -50.25 74.5 C-51.14203125 74.5515625 -52.0340625 74.603125 -52.953125 74.65625 C-60.96138906 72.93139313 -67.2152564 65.14986321 -72.8125 59.5625 C-73.56208984 58.83740234 -74.31167969 58.11230469 -75.08398438 57.36523438 C-79.92805123 52.54714107 -83.09976968 48.61469419 -84.43359375 41.77734375 C-84.44447791 36.65090568 -83.32501633 33.85001891 -80 30 C-75.73734532 26.14331243 -72.12583499 25.25316159 -66.52734375 25.48046875 C-62.09376444 26.39185368 -59.22287094 28.94863438 -56 32 C-55.47019531 32.49886719 -54.94039062 32.99773437 -54.39453125 33.51171875 C-53.234364 34.64588786 -52.11196649 35.8185356 -51 37 C-47.91655459 35.62737236 -45.82281099 34.06394769 -43.45654297 31.66772461 C-42.78259491 30.9903978 -42.10864685 30.31307098 -41.41427612 29.61521912 C-40.69748688 28.88497025 -39.98069763 28.15472137 -39.2421875 27.40234375 C-38.49792511 26.65287979 -37.75366272 25.90341583 -36.98684692 25.13124084 C-34.61143574 22.73802366 -32.24281991 20.33822632 -29.875 17.9375 C-27.49917784 15.53408548 -25.12192511 13.13213131 -22.74172974 10.73304749 C-21.26100567 9.2400398 -19.78296256 7.74436764 -18.30783081 6.24583435 C-17.3063652 5.23457237 -17.3063652 5.23457237 -16.28466797 4.20288086 C-15.69716766 3.60712753 -15.10966736 3.01137421 -14.50436401 2.39756775 C-10.54281268 -1.2827492 -5.07520921 -0.52329135 0 0 Z " fill="#61D2DB" transform="translate(213,358)"/>
<path d="M0 0 C4.004793 2.0023965 6.6587028 4.17998877 9 8 C10.34193918 12.02581755 11.0037121 15.71054662 9.23561096 19.74356079 C5.26398799 26.26985789 -0.00892874 31.42692035 -5.41015625 36.7734375 C-6.42527053 37.78803208 -7.43986424 38.80314774 -8.45396423 39.8187561 C-10.56822152 41.93292422 -12.68749917 44.04187914 -14.81079102 46.14697266 C-17.52840441 48.84179877 -20.23469471 51.54766941 -22.93756962 54.25726891 C-25.02613647 56.34917854 -27.11966162 58.43606661 -29.21481133 60.52138138 C-30.21485436 61.51758513 -31.21356438 62.51512893 -32.21089363 63.51404953 C-33.60319773 64.90672522 -35.00274154 66.2921517 -36.40258789 67.67724609 C-37.19580948 68.46586029 -37.98903107 69.25447449 -38.80628967 70.06698608 C-42.48115063 73.30513347 -45.37735069 74.33293774 -50.25 74.5 C-51.14203125 74.5515625 -52.0340625 74.603125 -52.953125 74.65625 C-60.96138906 72.93139313 -67.2152564 65.14986321 -72.8125 59.5625 C-73.56208984 58.83740234 -74.31167969 58.11230469 -75.08398438 57.36523438 C-79.92805123 52.54714107 -83.09976968 48.61469419 -84.43359375 41.77734375 C-84.44447791 36.65090568 -83.32501633 33.85001891 -80 30 C-75.73734532 26.14331243 -72.12583499 25.25316159 -66.52734375 25.48046875 C-62.09376444 26.39185368 -59.22287094 28.94863438 -56 32 C-55.47019531 32.49886719 -54.94039062 32.99773437 -54.39453125 33.51171875 C-53.234364 34.64588786 -52.11196649 35.8185356 -51 37 C-47.91655459 35.62737236 -45.82281099 34.06394769 -43.45654297 31.66772461 C-42.78259491 30.9903978 -42.10864685 30.31307098 -41.41427612 29.61521912 C-40.69748688 28.88497025 -39.98069763 28.15472137 -39.2421875 27.40234375 C-38.49792511 26.65287979 -37.75366272 25.90341583 -36.98684692 25.13124084 C-34.61143574 22.73802366 -32.24281991 20.33822632 -29.875 17.9375 C-27.49917784 15.53408548 -25.12192511 13.13213131 -22.74172974 10.73304749 C-21.26100567 9.2400398 -19.78296256 7.74436764 -18.30783081 6.24583435 C-17.3063652 5.23457237 -17.3063652 5.23457237 -16.28466797 4.20288086 C-15.69716766 3.60712753 -15.10966736 3.01137421 -14.50436401 2.39756775 C-10.54281268 -1.2827492 -5.07520921 -0.52329135 0 0 Z " fill="#61D2DB" transform="translate(213,258)"/>
<path d="M0 0 C4.5984402 2.30913053 7.28906155 5.49999732 9 10.34765625 C9.65774509 15.70358057 8.63483853 18.72302699 6 23.34765625 C3.81265259 25.91595459 3.81265259 25.91595459 1.24072266 28.49511719 C0.77039108 28.97070572 0.30005951 29.44629425 -0.18452454 29.93629456 C-1.72758109 31.49246023 -3.28123824 33.03750386 -4.8359375 34.58203125 C-5.91870233 35.66681909 -7.00102167 36.75205176 -8.08291626 37.83770752 C-10.3460079 40.10520991 -12.61440565 42.36722813 -14.88671875 44.62548828 C-17.79434621 47.51600426 -20.68826923 50.41980862 -23.5783596 53.32784653 C-25.80860169 55.56894267 -28.04595653 57.80282782 -30.28551102 60.03461456 C-31.35539403 61.10250112 -32.42306624 62.17260749 -33.48844528 63.24498749 C-34.97912248 64.74330802 -36.47912313 66.23163585 -37.98193359 67.71777344 C-38.83226166 68.56571472 -39.68258972 69.41365601 -40.5586853 70.28729248 C-44.05219685 73.23566477 -46.86452619 74.22149249 -51.375 74.72265625 C-60.10858441 73.819182 -65.52152489 67.26713217 -71.39038086 61.29345703 C-72.81788554 59.84218103 -74.25844143 58.40487476 -75.70117188 56.96875 C-85.26315151 47.33222623 -85.26315151 47.33222623 -85.375 41.03515625 C-85.24273278 36.30465794 -84.14603081 32.91932652 -81 29.34765625 C-77.63971781 26.53633105 -74.78820548 25.44445341 -70.4375 24.91015625 C-63.18657307 25.8330015 -59.59121403 29.52146205 -54.9296875 34.80078125 C-53.16122683 36.59076014 -53.16122683 36.59076014 -51.09887695 36.14451599 C-48.60137352 35.1963137 -47.35409618 34.05121246 -45.48828125 32.14477539 C-44.82078857 31.47060074 -44.1532959 30.79642609 -43.46557617 30.1018219 C-42.75506104 29.3695488 -42.0445459 28.6372757 -41.3125 27.8828125 C-40.57298096 27.13430527 -39.83346191 26.38579803 -39.0715332 25.61460876 C-36.70710832 23.22013583 -34.35280644 20.81604254 -32 18.41015625 C-29.64636249 16.00870597 -27.29055756 13.6095527 -24.9284668 11.21641541 C-23.45863668 9.72681928 -21.99376541 8.23231024 -20.53442383 6.73243713 C-19.53318481 5.71644691 -19.53318481 5.71644691 -18.51171875 4.67993164 C-17.92865967 4.08338272 -17.34560059 3.4868338 -16.74487305 2.87220764 C-11.90045075 -1.36051907 -6.05555178 -1.97515068 0 0 Z " fill="#60D2DB" transform="translate(214,150.65234375)"/>
</svg>
